<svg xmlns="http://www.w3.org/2000/svg" width="37.628" height="37.628"><path d="M36.895 23.758L25.092 35.562a2.497 2.497 0 01-1.77.731c-.211 0-.419-.037-.625-.089a2.475 2.475 0 001.145-.644l11.803-11.804a2.493 2.493 0 000-3.534L17.488 2.067a2.483 2.483 0 00-1.199-.651l.243-.043a2.5 2.5 0 012.206.694l18.156 18.156c.978.976.978 2.559.001 3.535zm-2.667 0L22.425 35.562a2.497 2.497 0 01-1.77.731c-.64 0-1.279-.244-1.768-.731L.732 17.405a2.5 2.5 0 01-.694-2.206L1.822 5.181a2.502 2.502 0 012.023-2.023l10.019-1.784a2.5 2.5 0 012.206.694l18.156 18.156c.98.975.98 2.558.002 3.534zM9.454 7.193a2.543 2.543 0 10-3.622 3.57 2.543 2.543 0 003.622-3.57z"/></svg>