<svg width="442" height="66" fill="none" xmlns="http://www.w3.org/2000/svg"><path d="M8.315 50.63c2.344 0 4.292.703 5.845 2.11 1.553 1.376 2.33 3.149 2.33 5.317s-.777 3.955-2.33 5.361c-1.553 1.377-3.5 2.065-5.845 2.065-2.373 0-4.336-.703-5.888-2.109C.903 61.968.142 60.195.142 58.057c0-2.139.761-3.912 2.285-5.318 1.552-1.406 3.515-2.11 5.888-2.11zm72.95-16.304c0 6.24-1.158 11.763-3.472 16.568-2.315 4.804-5.61 8.51-9.888 11.118-4.248 2.578-9.096 3.867-14.546 3.867-5.449 0-10.283-1.245-14.502-3.735-4.218-2.52-7.514-6.109-9.887-10.767-2.344-4.658-3.575-10.005-3.692-16.04v-3.604c0-6.27 1.143-11.792 3.428-16.567 2.314-4.805 5.61-8.51 9.888-11.118C42.9 1.44 47.793.137 53.272.137c5.42 0 10.253 1.289 14.501 3.867 4.249 2.578 7.544 6.255 9.888 11.03 2.373 4.746 3.574 10.196 3.604 16.348v2.944zm-15.689-2.68c0-6.358-1.07-11.177-3.208-14.459-2.11-3.31-5.141-4.965-9.096-4.965-7.735 0-11.822 5.8-12.261 17.402l-.044 4.702c0 6.27 1.04 11.089 3.12 14.458 2.08 3.37 5.17 5.054 9.272 5.054 3.897 0 6.9-1.655 9.01-4.966 2.109-3.31 3.178-8.071 3.207-14.282v-2.945zM142.656 65h-15.337l-22.675-39.814V65H89.219V1.016h15.425l22.631 39.814V1.016h15.381V65zm49.439-27.114h-24.258v15.249h28.652V65h-44.077V1.016h44.165v11.909h-28.74v13.491h24.258v11.47zm48.515 5.405V65h-15.424V1.016h25.532c4.892 0 9.214.908 12.964 2.724 3.779 1.787 6.694 4.35 8.745 7.69 2.08 3.311 3.12 7.076 3.12 11.295 0 6.24-2.241 11.235-6.724 14.985-4.453 3.72-10.576 5.581-18.369 5.581h-9.844zm0-11.91h10.108c2.988 0 5.259-.746 6.811-2.24 1.582-1.494 2.373-3.604 2.373-6.328 0-2.989-.805-5.377-2.417-7.164-1.611-1.787-3.808-2.695-6.591-2.724H240.61v18.457zm71.719 21.666h-21.138L287.5 65h-16.479l23.466-63.984h14.502L332.632 65h-16.568l-3.735-11.953zm-17.446-11.91h13.755l-6.9-22.192-6.855 22.193zM388.75 57.09c-2.373 2.637-5.845 4.76-10.415 6.372-4.57 1.611-9.58 2.417-15.029 2.417-8.379 0-15.074-2.564-20.083-7.69-5.01-5.127-7.691-12.261-8.042-21.402l-.044-5.537c0-6.299 1.113-11.792 3.34-16.48 2.226-4.716 5.405-8.334 9.536-10.854 4.16-2.549 8.965-3.823 14.414-3.823 7.969 0 14.15 1.83 18.545 5.493 4.424 3.633 7.002 9.067 7.734 16.304h-14.853c-.528-3.575-1.67-6.123-3.428-7.647-1.758-1.523-4.248-2.285-7.471-2.285-3.867 0-6.855 1.64-8.965 4.922-2.109 3.281-3.178 7.969-3.208 14.062v3.868c0 6.386 1.084 11.191 3.252 14.414 2.197 3.193 5.64 4.79 10.327 4.79 4.014 0 7.002-.894 8.965-2.681v-9.932h-10.722v-10.59h26.147V57.09zm48.647-19.204H413.14v15.249h28.652V65h-44.077V1.016h44.165v11.909h-28.74v13.491h24.257v11.47z" fill="#fff"/></svg>